<svg width="18" height="14" viewBox="0 0 18 14" fill="none" xmlns="http://www.w3.org/2000/svg">
<path id="Combined Shape" d="M10.587 0.765981C10.4901 0.702318 10.358 0.713679 10.273 0.799019C10.1756 0.896858 10.176 1.05515 10.2738 1.15257L10.2738 1.15261L15.0368 5.89614L15.8947 6.75047L14.684 6.75041L1.51679 6.74981L1.45325 6.75409C1.33768 6.77572 1.25 6.87791 1.25 6.99981C1.25 7.13789 1.36193 7.24981 1.5 7.24981H1.50002L14.682 7.25041L15.8924 7.25047L15.0349 8.10465L10.2868 12.8343L10.2413 12.8867C10.1773 12.9833 10.1881 13.1155 10.2731 13.2008L9.92122 13.5512L10.2731 13.2008C10.3705 13.2987 10.5288 13.299 10.6266 13.2016L16.6766 7.17656L16.6824 7.17084C16.6878 7.16502 16.693 7.15895 16.6979 7.15266L16.7014 7.14802C16.7043 7.14411 16.7068 7.14049 16.7086 7.13781L16.7089 7.13723C16.7121 7.13246 16.7153 7.12722 16.7188 7.12104L16.7229 7.11332L16.724 7.1112C16.7273 7.1047 16.7304 7.09772 16.7335 7.08975L16.7368 7.08061L16.7374 7.07887C16.7396 7.07227 16.7416 7.06514 16.7436 7.05702L16.7452 7.04917L16.7457 7.04655C16.7466 7.04192 16.7473 7.0372 16.748 7.03241L16.7499 6.9908L16.7498 6.98545C16.7497 6.98373 16.7496 6.98247 16.7495 6.98159C16.7495 6.98119 16.7495 6.98086 16.7494 6.98061L16.7487 6.97415L16.7487 6.97415C16.7481 6.96801 16.7472 6.96089 16.7459 6.95284L16.7449 6.94824L16.7431 6.94117L16.7432 6.94115C16.7418 6.93522 16.7398 6.92797 16.7373 6.9196C16.737 6.91868 16.7367 6.91776 16.7364 6.91682C16.7364 6.91666 16.7363 6.9165 16.7363 6.91634L16.7414 6.91477L10.587 0.765981ZM10.587 0.765981L10.6396 0.81118L16.6766 6.82226C16.6886 6.83419 16.6988 6.84668 16.7076 6.85953C16.7128 6.8682 16.7159 6.87346 16.7184 6.87784L16.7221 6.88451L16.7239 6.88737L10.587 0.765981Z" fill="#121212" stroke="#121212"/>
</svg>
