<svg width="20" height="20" viewBox="0 0 20 20" fill="none" xmlns="http://www.w3.org/2000/svg">
<path d="M7.50033 18.3334H12.5003C16.667 18.3334 18.3337 16.6667 18.3337 12.5001V7.50008C18.3337 3.33341 16.667 1.66675 12.5003 1.66675H7.50033C3.33366 1.66675 1.66699 3.33341 1.66699 7.50008V12.5001C1.66699 16.6667 3.33366 18.3334 7.50033 18.3334Z" stroke="#414651" stroke-width="1.5" stroke-linecap="round" stroke-linejoin="round"/>
<path d="M13.5667 11.3417C12.625 12.2834 11.275 12.575 10.0833 12.2L7.925 14.35C7.775 14.5084 7.46667 14.6084 7.24167 14.575L6.24167 14.4417C5.90833 14.4 5.60833 14.0834 5.55833 13.7584L5.425 12.7584C5.39167 12.5417 5.5 12.2334 5.65 12.075L7.8 9.92503C7.43333 8.73337 7.71667 7.38337 8.65833 6.4417C10.0083 5.0917 12.2083 5.0917 13.5667 6.4417C14.9167 7.78337 14.9167 9.98337 13.5667 11.3417Z" stroke="#414651" stroke-width="1.5" stroke-miterlimit="10" stroke-linecap="round" stroke-linejoin="round"/>
<path d="M8.70833 13.5668L8 12.8501" stroke="#414651" stroke-width="1.5" stroke-miterlimit="10" stroke-linecap="round" stroke-linejoin="round"/>
<path d="M11.1621 8.91667H11.1696" stroke="#414651" stroke-width="1.5" stroke-linecap="round" stroke-linejoin="round"/>
</svg>
